<svg id="Layer_1" data-name="Layer 1" xmlns="http://www.w3.org/2000/svg" viewBox="0 0 39.93 39.94"><defs><style>.cls-1{fill:#010101;}</style></defs><path class="cls-1" d="M18.66,0l-.61.06A20,20,0,0,0,3.7,8.34,19.79,19.79,0,0,0,.18,17.06,15.31,15.31,0,0,0,0,20a15.31,15.31,0,0,0,.18,2.91A20,20,0,0,0,13.84,39a21.43,21.43,0,0,0,4.21.88c.61.06,3.23.06,3.83,0a20.09,20.09,0,0,0,7.19-2.11c.35-.17.41-.22.37-.26s-1.5-2-3.25-4.36L23,28.85l-4-5.92C16.79,19.67,15,17,15,17s0,2.63,0,5.84c0,5.62,0,5.85-.08,6a.72.72,0,0,1-.35.36c-.12.06-.23.07-.82.07H13l-.18-.11a.75.75,0,0,1-.27-.29l-.08-.17V13l.12-.15a1.32,1.32,0,0,1,.29-.24c.16-.08.22-.08.9-.08s.93,0,1.14.25c.05.07,2.22,3.33,4.81,7.26L27.63,32l3.16,4.79.16-.11a20.65,20.65,0,0,0,4.11-3.59,20,20,0,0,0,4.7-10.21A15.41,15.41,0,0,0,39.93,20a15.41,15.41,0,0,0-.17-2.91A20.09,20.09,0,0,0,26.1.93,21.23,21.23,0,0,0,21.94.06C21.56,0,19,0,18.66,0Zm8.17,12.08a.79.79,0,0,1,.4.46c0,.1,0,2.27,0,7.16v7L26,24.83l-1.24-1.9v-5.1c0-3.3,0-5.15,0-5.24a.79.79,0,0,1,.38-.49c.16-.08.22-.09.84-.09S26.71,12,26.83,12.09Z"/></svg>